# xmcd
#
# Track frame offsets:
#	150
#	13575
#	32670
#	63380
#	78150
#	96105
#	110515
#	127867
#	145035
#	160770
#	175582
#	186987
#	200992
#	219925
#
# Disc length: 3135 seconds
#
# Revision: 0
# Processed by: cddbd v1.4PL0 Copyright (c) Steve Scherf et al.
# Submitted via: dBpowerAMP V4.0
#
DISCID=b50c3d0e
DTITLE=Bruce Ewan w/ André Christovam Trio - Mississippi Saxophone
DYEAR=1900
DGENRE=Blues
TTITLE0=Koo Zow Stomp
TTITLE1=Eyesight To The Blind
TTITLE2=Black Night
TTITLE3=Checkin' On My Baby
TTITLE4=Shake Your Boogie
TTITLE5=I Wish You Would
TTITLE6=My Love Is Here To Stay
TTITLE7=San-ho-zay
TTITLE8=Mean Old Train
TTITLE9=Money, Marbles and Chalk
TTITLE10=I Got To Go
TTITLE11=Pretty Baby
TTITLE12=Tough Times
TTITLE13=Chitlin' Con Carne
EXTD=
EXTT0=
EXTT1=
EXTT2=
EXTT3=
EXTT4=
EXTT5=
EXTT6=
EXTT7=
EXTT8=
EXTT9=
EXTT10=
EXTT11=
EXTT12=
EXTT13=
PLAYORDER=
